<?xml version="1.0" ?><!DOCTYPE svg  PUBLIC '-//W3C//DTD SVG 1.1//EN'  'http://www.w3.org/Graphics/SVG/1.1/DTD/svg11.dtd'><svg height="64px" id="ICONS" style="enable-background:new 0 0 64 64;" version="1.1" viewBox="0 0 64 64" width="64px" xml:space="preserve" xmlns="http://www.w3.org/2000/svg" xmlns:xlink="http://www.w3.org/1999/xlink"><g><path d="   M39.06,33.94C39.7,33.98,40.34,34,41,34c4.4,0,8.43-0.79,11.55-2.1c0.04-0.02,0.08-0.03,0.12-0.05C56.54,30.2,59,27.74,59,25   c0-4.97-8.06-9-18-9s-18,4.03-18,9c0,1.46,0.7,2.84,1.94,4.06" style="fill:none;stroke:#202020;stroke-width:2;stroke-linecap:round;stroke-linejoin:round;stroke-miterlimit:10;"/><path d="   M41,37.5C41,37.5,40.99,37.5,41,37.5c5.5,0,10.13-2.4,11.55-5.35c0.04-0.09,0.09-0.19,0.12-0.3C52.89,31.28,53,30.56,53,30   c0-3.87-5.37-7-12-7c-6.35,0-11.535,2.87-11.955,6.52" style="fill:none;stroke:#202020;stroke-width:2;stroke-linecap:round;stroke-linejoin:round;stroke-miterlimit:10;"/><ellipse cx="23" cy="38" rx="18" ry="9" style="fill:none;stroke:#202020;stroke-width:2;stroke-linecap:round;stroke-linejoin:round;stroke-miterlimit:10;"/><ellipse cx="23" cy="43" rx="12" ry="7" style="fill:none;stroke:#202020;stroke-width:2;stroke-linecap:round;stroke-linejoin:round;stroke-miterlimit:10;"/></g></svg>